<svg width="68" height="42" viewBox="0 0 68 42" fill="none" xmlns="http://www.w3.org/2000/svg">
<g clip-path="url(#clip0_368_953)">
<path fill-rule="evenodd" clip-rule="evenodd" d="M59.7199 21.003C59.1549 21.681 59.5199 22.463 60.0349 23.028C60.5499 23.593 65.1699 28.639 66.4299 29.939C67.6899 31.239 66.8369 31.339 66.0589 31.23C65.2809 31.121 58.4229 29.939 57.6989 29.779C57.0517 29.7045 56.4561 29.3897 56.0299 28.897C55.6859 28.466 51.1559 22.309 50.8759 22.309H50.7839V27.039C50.7839 28.331 50.2699 28.644 49.5959 28.599C48.7536 28.5192 47.9181 28.3788 47.0959 28.179C45.6959 27.864 45.2299 27.399 45.2299 25.738V18.667C45.2299 17.014 46.1069 16.967 46.9419 16.805C46.9419 16.805 48.3939 16.499 49.4849 16.342C50.5759 16.185 50.7849 16.951 50.7849 17.73V21.739H50.9849C51.2769 21.739 54.7849 17.573 55.6199 16.595C55.9377 16.1528 56.3399 15.7778 56.8033 15.4917C57.2667 15.2056 57.7821 15.014 58.3199 14.928C59.2369 14.717 63.6119 13.991 65.6959 13.692C67.7699 13.375 66.8869 14.042 66.3099 14.617C65.7329 15.192 60.2939 20.333 59.7199 21.003ZM34.0409 13.255C31.9819 10.862 32.0669 11.002 30.7149 10.103C29.5417 9.36786 28.3176 8.71721 27.0519 8.15601C27.0519 8.15601 27.0009 7.28301 26.9139 6.85001C26.8339 6.57925 26.6974 6.3285 26.5135 6.11426C26.3296 5.90002 26.1024 5.72715 25.8469 5.60701C25.9881 5.91104 26.0989 6.22824 26.1779 6.55401C26.2549 6.99401 26.2779 7.60601 25.8899 7.70701C25.5099 7.83201 21.9509 6.88001 18.1109 6.94401C16.6819 6.96501 13.1359 7.33101 13.1359 7.33101C12.6887 7.13521 12.3317 6.77818 12.1359 6.33101C11.8893 5.73329 11.8627 5.06749 12.0609 4.45201L13.7969 4.78001C14.7027 4.32379 15.6483 3.95125 16.6219 3.66701C17.8931 3.29566 19.19 3.01824 20.5019 2.83701C20.7728 2.78125 21.0262 2.66071 21.2404 2.48569C21.4546 2.31068 21.6232 2.08639 21.7319 1.83201C21.8059 1.21103 21.7212 0.581422 21.4859 0.00201416C21.4859 0.00201416 22.2109 0.650014 22.5659 1.00201C22.8473 1.35367 23.0707 1.74796 23.2279 2.17001C23.2279 2.17001 24.7279 1.79201 26.1129 1.56101C27.0779 1.40501 30.9959 1.45401 30.9959 1.45401C30.5264 1.60263 30.0751 1.80391 29.6509 2.05401C29.532 2.2054 29.4424 2.3777 29.3869 2.56201C29.3869 2.56201 31.2009 2.39301 32.2609 2.39301C33.3209 2.39301 36.3349 2.67401 36.3349 2.67401C36.3349 2.67401 35.7649 2.95301 35.3229 3.22201C35.0749 3.36092 34.8792 3.5773 34.7659 3.83801C34.7659 3.83801 36.6959 4.18101 37.8509 4.45201C39.1933 4.88964 40.5021 5.42438 41.7669 6.05201C41.3669 6.11875 40.9717 6.21162 40.5839 6.33001C40.2379 6.47079 39.9351 6.70014 39.7059 6.99501C39.7059 6.99501 40.6689 7.21201 43.1939 7.99501C44.8274 8.51903 46.4024 9.21037 47.8939 10.058C47.8939 10.058 46.7939 10.182 46.2509 10.273C45.8761 10.3509 45.5192 10.4984 45.1989 10.708C46.5402 11.2326 47.8534 11.8268 49.1329 12.488C50.1022 12.9805 51.0143 13.5781 51.8529 14.27L44.4769 15.586L34.0409 13.255ZM34.4819 5.22001C30.5939 3.49801 26.2289 2.56701 25.9389 3.27801C25.5509 4.21901 29.1029 3.61401 34.3159 5.99701C37.4448 7.25396 40.2941 9.11739 42.6999 11.48C40.4288 8.84129 37.6291 6.70864 34.4819 5.22001ZM22.2349 14.539C22.2349 15.647 21.3349 15.871 20.0129 16.039C18.6729 16.206 16.2919 16.486 15.2339 16.655C14.1759 16.824 13.6249 17.262 13.6249 18.755V28.19C13.6249 30.407 12.5699 30.014 11.4029 29.858C10.2479 29.685 8.35589 29.467 7.02889 29.187C6.55421 29.0997 6.13216 28.8311 5.85216 28.438C5.57216 28.0448 5.45621 27.5581 5.52889 27.081V19.584C5.52889 18.095 4.58289 17.973 4.08689 18.032C3.59089 18.091 2.30889 18.193 1.30789 18.26C0.307888 18.311 0.000887655 18.178 -0.00411235 17.798C-0.00911235 17.418 0.478888 17.087 1.36189 16.928C2.24489 16.769 18.5559 13.984 19.6159 13.817C20.6759 13.65 22.2349 13.424 22.2349 14.539ZM13.0189 39.559H11.7899V37.065H13.7639V36.799H11.1359V36.013H13.7639V35.465L14.8279 35.514C14.9129 35.529 14.9689 35.547 14.9689 35.606C14.9689 35.688 14.8819 35.706 14.7409 35.747V36.013H17.3589V36.799H14.7409V37.065H16.7349V39.558H15.5269C15.8341 39.8067 16.1571 40.0352 16.4939 40.242C16.807 40.4209 17.1395 40.5635 17.4849 40.667C16.9519 41.103 16.8459 41.218 16.7309 41.423C16.324 41.2376 15.9325 41.0202 15.5599 40.773C15.2729 40.5714 14.9993 40.3512 14.7409 40.114V41.429H13.7639V40.129C13.2159 40.6939 12.5648 41.1488 11.8459 41.469C11.6251 41.1725 11.3322 40.9374 10.9949 40.786C11.7557 40.5394 12.4487 40.1199 13.0189 39.559ZM14.7409 38.82H15.7289V38.553H14.7409V38.82ZM14.7409 37.981H15.7289V37.754H14.7409V37.981ZM13.7639 37.754H12.8069V37.981H13.7639V37.754ZM13.7639 38.554H12.8069V38.821H13.7639V38.554ZM20.8979 35.423L21.9739 35.474C22.0399 35.474 22.0739 35.487 22.0739 35.535C22.0739 35.583 22.0419 35.615 21.9119 35.657V35.957H24.5009V36.804H18.2749V35.957H20.8979V35.423ZM20.6339 39.684C20.6719 39.706 20.7059 39.729 20.7059 39.784C20.7059 39.839 20.6539 39.843 20.5239 39.843C20.1662 40.418 19.7103 40.9258 19.1769 41.343C18.9096 41.1119 18.6053 40.9273 18.2769 40.797C18.8606 40.37 19.3478 39.8248 19.7069 39.197L20.6339 39.684ZM20.8979 40.324V39.103H19.0169V37.079H23.7599V39.103H21.9099V40.71C21.9099 41.249 21.7969 41.491 20.5239 41.447C20.4502 41.1071 20.3229 40.781 20.1469 40.481C20.2649 40.495 20.5409 40.514 20.6719 40.514C20.8979 40.514 20.8979 40.404 20.8979 40.322V40.324ZM22.7609 38.324V37.864H20.0469V38.324H22.7609ZM24.3529 40.7C24.0377 40.8923 23.7369 41.1072 23.4529 41.343C23.1453 40.7208 22.7078 40.1718 22.1699 39.733L23.0069 39.223C23.5273 39.6425 23.9811 40.1385 24.3529 40.694V40.7ZM27.5059 37.727C27.2632 38.0028 27.0387 38.294 26.8339 38.599C26.364 38.2221 25.8397 37.9187 25.2789 37.699L25.8869 36.814C26.4614 37.0495 27.005 37.3541 27.5059 37.721V37.727ZM30.5059 36.889C30.6873 37.2243 30.924 37.5265 31.2059 37.783C30.5779 38.6037 29.8283 39.3237 28.9829 39.918C28.2068 40.4806 27.3603 40.9388 26.4649 41.281C26.4649 41.332 26.4499 41.435 26.3549 41.435C26.3089 41.435 26.2939 41.408 26.2449 41.347L25.6719 40.372C27.6005 39.7298 29.2862 38.5122 30.5019 36.883L30.5059 36.889ZM37.7939 38.38H35.5469C35.5549 39.1504 35.2745 39.8958 34.7609 40.47C34.3523 40.907 33.8371 41.2302 33.2659 41.408C33.0355 41.0923 32.7572 40.8146 32.4409 40.585C33.9259 40.206 34.4209 39.417 34.4409 38.385H31.9149V37.437H37.7899L37.7939 38.38ZM41.8699 36.428L42.6749 37.052C42.7159 37.082 42.7159 37.082 42.7159 37.111C42.7159 37.157 42.6809 37.179 42.5629 37.157C42.1591 37.5606 41.7274 37.9352 41.2709 38.278V41.202H40.2469V38.919C40.0929 38.995 39.6409 39.239 39.2469 39.43C39.1779 39.46 39.0469 39.516 38.8679 39.576C38.6807 39.2831 38.4473 39.0224 38.1769 38.804C39.6172 38.3971 40.9023 37.5673 41.8659 36.422L41.8699 36.428ZM32.8979 36.689V35.739H36.8469V36.684L32.8979 36.689ZM27.6469 37.01C27.1308 36.6641 26.5704 36.3893 25.9809 36.193L26.5809 35.38C27.1797 35.5839 27.7563 35.8479 28.3019 36.168C28.1579 36.311 27.7469 36.863 27.6469 37.004V37.01ZM23.0059 29.891C23.0059 28.539 22.9609 17.062 22.9609 15.144C22.9609 13.226 23.9429 13.485 25.2399 13.699C26.5369 13.913 41.9469 16.805 43.2119 16.951C44.2979 17.087 44.8679 18.483 43.2119 18.365C42.1649 18.284 36.3559 17.426 35.4269 17.371C34.4819 17.326 33.9149 17.73 33.9149 18.671V25.739C33.9149 27.817 34.7979 27.817 35.6729 27.715C36.5479 27.613 41.6959 26.779 43.2559 26.668C44.5609 26.584 44.6709 27.757 43.1489 28.025C42.0909 28.213 28.1949 30.925 25.7489 31.453C23.3029 31.981 23.0019 31.233 23.0019 29.885L23.0059 29.891ZM46.6059 37.591H43.4879V36.871H44.1879C44.1248 36.734 44.0543 36.6005 43.9769 36.471H43.6869V35.736H44.6779V35.212L45.6839 35.24C45.7139 35.24 45.7919 35.24 45.7919 35.32C45.7919 35.384 45.7249 35.42 45.6839 35.458V35.736H46.4839V36.471H46.2669C46.2249 36.528 46.1099 36.771 46.0559 36.871H46.6059V37.591ZM44.8119 36.469C44.8479 36.526 44.9939 36.807 45.0379 36.869H45.2609C45.4089 36.569 45.4219 36.531 45.4609 36.469H44.8119ZM44.2469 39.419H43.7899V37.753H46.4979V39.411H46.1099V39.96C46.2879 39.909 46.5619 39.784 46.6539 39.76C46.6539 39.85 46.6899 40.329 46.6979 40.435C46.3181 40.6382 45.9257 40.8165 45.5229 40.969C45.5169 40.982 45.4869 41.069 45.4229 41.069C45.3948 41.0645 45.369 41.0511 45.3492 41.0307C45.3293 41.0104 45.3166 40.9842 45.3129 40.956L45.1509 40.256L45.2369 40.213V39.413H44.5169L45.0969 39.639C45.1499 39.66 45.1969 39.7 45.1969 39.739C45.1969 39.778 45.1559 39.801 45.0679 39.847C45.0106 40.1541 44.8926 40.4467 44.7209 40.7077C44.5492 40.9687 44.3272 41.1928 44.0679 41.367C43.86 41.1359 43.5997 40.9579 43.3089 40.848C43.5799 40.7148 43.81 40.5111 43.9751 40.2582C44.1401 40.0054 44.234 39.7127 44.2469 39.411V39.419ZM44.7119 38.701H45.5639V38.388H44.7119V38.701ZM49.8419 37.591H46.8089V36.871H47.3709C47.3031 36.7326 47.2259 36.5989 47.1399 36.471H46.8799V35.736H47.7019V35.212L48.7079 35.24C48.7719 35.24 48.8279 35.26 48.8279 35.327C48.8279 35.376 48.7999 35.403 48.7079 35.467V35.736H49.6869V36.471H49.4049C49.3469 36.6085 49.2801 36.7421 49.2049 36.871H49.8469L49.8419 37.591ZM47.9419 36.469C48.0089 36.607 48.1069 36.789 48.1549 36.869H48.3939C48.4549 36.749 48.5299 36.569 48.5709 36.469H47.9419ZM47.4099 39.419H46.8469V37.753H49.6049V39.411H48.9909V40.359C48.9909 40.379 48.9909 40.444 49.0629 40.444C49.1049 40.444 49.1199 40.404 49.1399 40.297C49.1529 40.233 49.1969 39.932 49.2079 39.871C49.4146 40.0712 49.6791 40.201 49.9639 40.242C49.9336 40.4871 49.8745 40.7277 49.7879 40.959C49.7379 41.0543 49.6629 41.134 49.5709 41.1897C49.4789 41.2454 49.3734 41.2749 49.2659 41.275H48.6469C48.5801 41.2726 48.5146 41.2566 48.4542 41.2278C48.3939 41.1991 48.3401 41.1583 48.2962 41.108C48.2522 41.0577 48.2191 40.9989 48.1987 40.9353C48.1784 40.8716 48.1713 40.8045 48.1779 40.738V40.028C47.8895 40.6442 47.394 41.1396 46.7779 41.428C46.5978 41.1852 46.3706 40.9811 46.1099 40.828C46.4405 40.7424 46.7393 40.5631 46.9704 40.3118C47.2016 40.0604 47.3552 39.7476 47.4129 39.411L47.4099 39.419ZM48.6769 38.701V38.388H47.7619V38.701H48.6769ZM48.1709 39.682V39.419H47.6009L48.1709 39.682ZM51.8249 39.635V39.639L52.6509 39.49C52.8045 39.914 52.9053 40.3554 52.9509 40.804C52.615 40.8382 52.2811 40.8906 51.9509 40.961C51.9391 40.5569 51.8875 40.155 51.7969 39.761C51.6666 40.2817 51.4647 40.7818 51.1969 41.247C50.8884 41.096 50.5641 40.98 50.2299 40.901C50.5563 40.4536 50.7924 39.9468 50.9249 39.409L51.8249 39.635ZM53.7039 39.361C53.8862 39.7382 54.0222 40.1361 54.1089 40.546C53.7993 40.5702 53.4942 40.6341 53.2009 40.736C53.1518 40.3318 53.0419 39.9374 52.8749 39.566L53.7039 39.361ZM54.6969 39.204C54.8665 39.4964 55.0059 39.8053 55.1129 40.126C54.9131 40.172 54.7179 40.2363 54.5299 40.318C54.7143 40.3476 54.9003 40.3663 55.0869 40.374C55.2619 40.374 55.3639 40.297 55.4469 40.042C55.5335 39.7565 55.5833 39.4611 55.5949 39.163H52.0339V39.363H51.0579V35.397H56.2779V36.147H54.1869V36.399H55.7869V37.117H54.1869V37.384H55.7869V38.11H54.1869V38.416H56.6039C56.6403 39.226 56.4865 40.0332 56.1549 40.773C56.0274 40.9396 55.8594 41.0709 55.6668 41.1542C55.4743 41.2375 55.2636 41.2702 55.0549 41.249C54.9439 41.249 54.8549 41.249 54.7719 41.241C54.7339 40.9228 54.6459 40.6126 54.5109 40.322C54.4739 40.332 54.3389 40.396 54.3049 40.404C54.2236 40.0604 54.0968 39.7291 53.9279 39.419L54.6969 39.204ZM53.1969 36.155H52.0339V36.407H53.1979L53.1969 36.155ZM53.1969 37.125H52.0339V37.392H53.1979L53.1969 37.125ZM53.1969 38.118H52.0339V38.424H53.1979L53.1969 38.118Z" fill="white"/>
</g>
<defs>
<clipPath id="clip0_368_953">
<rect width="67.066" height="41.465" fill="white"/>
</clipPath>
</defs>
</svg>
